{"title":"Daddys Home 2015 HDCAM x264 HQMic AAC LiNE - Exclusive","uid":13215116,"size":573490361,"categoryP":"video","categoryS":"movies","magnet":"?xt=urn:btih:3137db7b5f9b52191326fb9da45db1626d68e33f&amp;dn=Daddys+Home+2015+HDCAM+x264+HQMic+AAC+LiNE+-+Exclusive&amp;tr=udp%3A%2F%2Ftracker.leechers-paradise.org%3A6969&amp;tr=udp%3A%2F%2Fzer0day.ch%3A1337&amp;tr=udp%3A%2F%2Fopen.demonii.com%3A1337&amp;tr=udp%3A%2F%2Ftracker.coppersurfer.tk%3A6969&amp;tr=udp%3A%2F%2Fexodus.desync.com%3A6969","seeders":8,"leechers":3,"uploader":"makintos13","files":1,"time":1452685515,"description":"screen:\r\n \nhttp://imgmak.com/KGL\r\n\r\n:::::::::::::::::::::::::: \nhttp://www.imdb.com/title/tt1528854/\r\n\r\nAudio- Th0ravenge, Thx My friend for the LiNE Audio :) \r\n\r\n\r\nGeneral\r\nFormat                         : Matroska\r\nFormat version                 : Version 2\r\nFile size                      : 547 MiB\r\nDuration                       : 1h 31mn\r\nOverall bit rate               : 836 Kbps\r\nEncoded date                   : UTC 2016-01-11 05:14:09\r\nWriting application            : mkvmerge v4.9.1 ('Ich will') creado el Jul 11 2011 23:53:15\r\nWriting library                : libebml v1.2.1 + libmatroska v1.1.1\r\n\r\nVideo\r\nID                             : 1\r\nFormat                         : AVC\r\nFormat/Info                    : Advanced Video Codec\r\nFormat profile                 :   \r\nFormat settings, CABAC         : Yes\r\nFormat settings, ReFrames      : 4 frames\r\nMuxing mode                    : Header stripping\r\nCodec ID                       : V_MPEG4/ISO/AVC\r\nDuration                       : 1h 31mn\r\nBit rate                       : 640 Kbps\r\nWidth                          : 720 pixels\r\nHeight                         : 404 pixels\r\nDisplay aspect ratio           : 16:9\r\nFrame rate mode                : Constant\r\nFrame rate                     : 29.970 fps\r\nColor space                    : YUV\r\nChroma subsampling             : 4:2:0\r\nBit depth                      : 8 bits\r\nScan type                      : Progressive\r\nBits/(Pixel*Frame)             : 0.073\r\nStream size                    : 410 MiB (75%)\r\nWriting library                : x264 core 142 r2491 24e4fed\r\nDefault                        : Yes\r\nForced                         : No\r\nColor range                    : Limited\r\nColor primaries                : BT.601 NTSC\r\nTransfer characteristics       : BT.709\r\nMatrix coefficients            : BT.601\r\n\r\nAudio\r\nID                             : 2\r\nFormat                         : AC-3\r\nFormat/Info                    : Audio Coding 3\r\nMode extension                 : CM (complete main)\r\nFormat settings, Endianness    : Big\r\nMuxing mode                    : Header stripping\r\nCodec ID                       : A_AC3\r\nDuration                       : 1h 31mn\r\nBit rate mode                  : Constant\r\nBit rate                       : 192 Kbps\r\nChannel(s)                     : 2 channels\r\nChannel positions              : Front: L R\r\nSampling rate                  : 48.0 KHz\r\nCompression mode               : Lossy\r\nStream size                    : 126 MiB (23%)\r\nLanguage                       : English\r\nDefault                        : Yes\r\nForced                         : No","torrent":{"xt":"urn:btih:3137db7b5f9b52191326fb9da45db1626d68e33f","amp;dn":"Daddys+Home+2015+HDCAM+x264+HQMic+AAC+LiNE+-+Exclusive","amp;tr":["udp%3A%2F%2Ftracker.leechers-paradise.org%3A6969","udp%3A%2F%2Fzer0day.ch%3A1337","udp%3A%2F%2Fopen.demonii.com%3A1337","udp%3A%2F%2Ftracker.coppersurfer.tk%3A6969","udp%3A%2F%2Fexodus.desync.com%3A6969"],"infoHash":"3137db7b5f9b52191326fb9da45db1626d68e33f","infoHashBuffer":{"type":"Buffer","data":[49,55,219,123,95,155,82,25,19,38,251,157,164,93,177,98,109,104,227,63]},"announce":[],"urlList":[]}}